<svg xmlns="http://www.w3.org/2000/svg" width="40" height="41" viewBox="0 0 40 41">
    <g fill="none" fill-rule="evenodd">
        <g>
            <g>
                <g>
                    <g>
                        <g>
                            <g>
                                <g>
                                    <g>
                                        <g>
                                            <g>
                                                <path fill="#FFF" fill-rule="nonzero" d="M19.7 14.8l6.4 6.4-6.3 6.4-6.4-6.4c-2.2-2.1-4.6-3.1-6.4-3.5-1.725-.383-4.828-.124-5.875-.366L1 17.3l-.127-.043c-.609-.245-.86-.9-.673-1.557.183-.458.535-.833 1.054-.892L1.4 14.8h7.1l-7.4-4.3c-.467-.28-.672-.908-.453-1.479L.7 8.9v-.1c.375-.563 1.102-.773 1.685-.468L2.5 8.4l7.4 4.3L3 5.8c-.467-.467-.498-1.195-.093-1.696L3 4c.373-.467 1.095-.498 1.596-.093L4.7 4l6.4 6.6L7.8 3c-.281-.656-.035-1.4.573-1.738L8.5 1.2l.132-.05c.622-.197 1.29.055 1.606.623l.062.127 1.1 2.4c.72 1.62 1.683 3.159 2.743 4.544l.357.456 1.3 1.6.05.05L16.9 9.9l.7-4.9c.4-1.4 1.4-1.9 2.8-1.4 0 .5-.1 1-.1 1.5-.182 1.364-.116 2.81.198 4.189l.102.411c.375 1.406.223 2.813-.375 4.136l-.125.264-.4.7z" transform="translate(-574 -827) translate(534 552) translate(20 187) translate(0 80) translate(20 8) translate(6 6.5)"/>
                                                <path stroke="#666" stroke-linejoin="round" d="M19.717 27.517L13.4 21.2C11.3 19 8.8 18 7 17.6c-1.8-.4-5.2-.1-6-.4-.7-.2-1-.9-.8-1.6.2-.5.7-.9 1.2-.9h7.1l-7.4-4.3C.5 10.1.3 9.3.7 8.7c.4-.6 1.2-.8 1.8-.4l7.4 4.3L3 5.8c-.5-.5-.5-1.3 0-1.8s1.3-.5 1.8 0l6.5 6.5L8 2.9c-.3-.7 0-1.5.7-1.8.7-.3 1.5 0 1.8.7l1.1 2.4c.8 1.8 1.8 3.5 3.1 5l1.3 1.6" transform="translate(-574 -827) translate(534 552) translate(20 187) translate(0 80) translate(20 8) translate(6 6.5)"/>
                                                <path stroke="#666" stroke-linecap="square" d="M25.4 20.5l-5.7-5.7.4-.7c.7-1.4.9-2.9.5-4.4-.4-1.5-.5-3.1-.3-4.6 0-.5.1-1 .1-1.5-1.4-.5-2.4 0-2.8 1.4h0l-.7 4.9h0l-1.3 1.3c-1 1-1.5 2.3-1.5 3.6h0M26.8 20.5L19 28.2" transform="translate(-574 -827) translate(534 552) translate(20 187) translate(0 80) translate(20 8) translate(6 6.5)"/>
                                            </g>
                                        </g>
                                    </g>
                                </g>
                            </g>
                        </g>
                    </g>
                </g>
            </g>
        </g>
    </g>
</svg>
